# xmcd
#
# Track frame offsets:
#        150
#        20860
#        47475
#        68335
#        86400
#        105737
#        123592
#        143505
#        160557
#        180542
#
# Disc length: 2648 seconds
#
# Revision: 0
# Processed by: cddbd v1.5.1PL0 Copyright (c) Steve Scherf et al.
# Submitted via: ExactAudioCopy v0.95a5
#
DISCID=750a560a
DTITLE=LITTLE TEMPO - SUPER DUB
DYEAR=2005
DGENRE=DUB
TTITLE0=RASTA DE PON DEM
TTITLE1=RING MY DUB
TTITLE2=EXOTIC DUB
TTITLE3=WEATHER DUB
TTITLE4=SUMMERTIME DUB
TTITLE5=MARS DUB
TTITLE6=MENTAL DUB
TTITLE7=PANTHER DUB
TTITLE8=FLYING DUB
TTITLE9=ARMY OF FARI DUB
EXTD=
EXTT0=
EXTT1=
EXTT2=
EXTT3=
EXTT4=
EXTT5=
EXTT6=
EXTT7=
EXTT8=
EXTT9=
PLAYORDER=
